<svg xmlns="http://www.w3.org/2000/svg" xmlns:xlink="http://www.w3.org/1999/xlink" width="500" zoomAndPan="magnify" viewBox="0 0 375 374.999991" height="500" preserveAspectRatio="xMidYMid meet" version="1.0"><defs><g/><clipPath id="ba71662d67"><path d="M 28.390625 234.152344 L 337.59375 234.152344 L 337.59375 348.382812 L 28.390625 348.382812 Z M 28.390625 234.152344 " clip-rule="nonzero"/></clipPath><clipPath id="a9b060feb1"><path d="M 0.390625 0.152344 L 309.59375 0.152344 L 309.59375 114.382812 L 0.390625 114.382812 Z M 0.390625 0.152344 " clip-rule="nonzero"/></clipPath><clipPath id="4c811e3488"><rect x="0" width="310" y="0" height="115"/></clipPath><clipPath id="3fced2de86"><rect x="0" width="334" y="0" height="295"/></clipPath><clipPath id="da0738f2ab"><rect x="0" width="272" y="0" height="142"/></clipPath></defs><g clip-path="url(#ba71662d67)"><g transform="matrix(1, 0, 0, 1, 28, 234)"><g clip-path="url(#4c811e3488)"><g clip-path="url(#a9b060feb1)"><path fill="#000000" d="M 0.390625 0.152344 L 309.617188 0.152344 L 309.617188 114.382812 L 0.390625 114.382812 Z M 0.390625 0.152344 " fill-opacity="1" fill-rule="nonzero"/></g></g></g></g><g transform="matrix(1, 0, 0, 1, 26, 0)"><g clip-path="url(#3fced2de86)"><g fill="#000000" fill-opacity="1"><g transform="translate(6.597108, 220.532987)"><g><path d="M 155.671875 -39.28125 L 70.1875 -39.28125 L 54.296875 0 L -4.046875 0 L 85.203125 -202.171875 L 141.515625 -202.171875 L 231.046875 0 L 171.546875 0 Z M 138.921875 -81.4375 L 112.921875 -146.140625 L 86.9375 -81.4375 Z M 138.921875 -81.4375 "/></g></g></g><g fill="#000000" fill-opacity="1"><g transform="translate(233.591761, 220.532987)"><g><path d="M 20.21875 -202.171875 L 77.40625 -202.171875 L 77.40625 0 L 20.21875 0 Z M 20.21875 -202.171875 "/></g></g></g></g></g><g transform="matrix(1, 0, 0, 1, 47, 220)"><g clip-path="url(#da0738f2ab)"><g fill="#ffffff" fill-opacity="1"><g transform="translate(2.916962, 110.592812)"><g><path d="M 63.03125 -17.375 L 25.375 -17.375 L 18.1875 0 L -1.046875 0 L 35.109375 -81.09375 L 53.640625 -81.09375 L 89.90625 0 L 70.203125 0 Z M 57.125 -31.625 L 44.265625 -62.6875 L 31.390625 -31.625 Z M 57.125 -31.625 "/></g></g></g><g fill="#ffffff" fill-opacity="1"><g transform="translate(91.670638, 110.592812)"><g><path d="M 69.171875 -42.171875 C 73.804688 -40.703125 77.4375 -38.25 80.0625 -34.8125 C 82.6875 -31.375 84 -27.144531 84 -22.125 C 84 -15.019531 81.238281 -9.554688 75.71875 -5.734375 C 70.195312 -1.910156 62.144531 0 51.5625 0 L 9.609375 0 L 9.609375 -81.09375 L 49.234375 -81.09375 C 59.117188 -81.09375 66.707031 -79.203125 72 -75.421875 C 77.289062 -71.640625 79.9375 -66.503906 79.9375 -60.015625 C 79.9375 -56.078125 78.988281 -52.5625 77.09375 -49.46875 C 75.207031 -46.382812 72.566406 -43.953125 69.171875 -42.171875 Z M 28.265625 -66.96875 L 28.265625 -47.84375 L 46.921875 -47.84375 C 51.554688 -47.84375 55.070312 -48.65625 57.46875 -50.28125 C 59.863281 -51.90625 61.0625 -54.300781 61.0625 -57.46875 C 61.0625 -60.632812 59.863281 -63.007812 57.46875 -64.59375 C 55.070312 -66.175781 51.554688 -66.96875 46.921875 -66.96875 Z M 50.171875 -14.140625 C 55.109375 -14.140625 58.832031 -14.945312 61.34375 -16.5625 C 63.851562 -18.1875 65.109375 -20.695312 65.109375 -24.09375 C 65.109375 -30.8125 60.128906 -34.171875 50.171875 -34.171875 L 28.265625 -34.171875 L 28.265625 -14.140625 Z M 50.171875 -14.140625 "/></g></g></g><g fill="#ffffff" fill-opacity="1"><g transform="translate(180.308447, 110.592812)"><g><path d="M 63.03125 -17.375 L 25.375 -17.375 L 18.1875 0 L -1.046875 0 L 35.109375 -81.09375 L 53.640625 -81.09375 L 89.90625 0 L 70.203125 0 Z M 57.125 -31.625 L 44.265625 -62.6875 L 31.390625 -31.625 Z M 57.125 -31.625 "/></g></g></g></g></g></svg>